<?xml version="1.0" encoding="utf-8"?>
<!-- Generator: Adobe Illustrator 27.0.1, SVG Export Plug-In . SVG Version: 6.00 Build 0)  -->
<svg version="1.1" id="Layer_1" xmlns="http://www.w3.org/2000/svg" xmlns:xlink="http://www.w3.org/1999/xlink" x="0px" y="0px"
	 viewBox="0 0 174 32" style="enable-background:new 0 0 174 32;" xml:space="preserve">
<style type="text/css">
	.st0{fill:#FFFFFF;}
	.st1{font-family:'Avokovie-Regular';}
	.st2{font-size:26.8531px;}
</style>
<g>
	<path class="st0" d="M13.2,28.1c0,0.7,0.2,1.4,0.7,1.8c0.5,0.5,1.1,0.7,1.9,0.7v0H4v0c0.8,0,1.4-0.3,1.9-0.8
		c0.5-0.5,0.8-1.1,0.8-1.8V5.7C6.8,5,6.5,4.4,6,3.9C5.5,3.5,4.8,3.2,4,3.1v0h11.8v0c-0.8,0.1-1.4,0.3-1.9,0.8
		c-0.5,0.5-0.7,1.1-0.7,1.8V10c0,0.7,0.3,1.3,0.9,1.8c0.6,0.5,1.3,1,2,1.4c0.8,0.4,1.6,0.7,2.4,0.9c0.8,0.2,1.5,0.4,2.1,0.4
		c1.1,0.2,2.1,0.5,3,1c1,0.5,1.8,1.1,2.6,1.9V5.7c0-0.7-0.3-1.4-0.8-1.8c-0.5-0.5-1.2-0.7-2-0.8v0h11.4v0c-0.8,0.1-1.4,0.3-1.9,0.8
		c-0.5,0.5-0.8,1.1-0.8,1.8v22.3c0,0.7,0.3,1.4,0.8,1.8c0.5,0.5,1.2,0.7,1.9,0.8v0H23.5v0c0.8,0,1.4-0.3,2-0.7
		c0.5-0.5,0.8-1,0.8-1.8v-6.6c-0.1-1.2-0.3-2.1-0.7-2.8C25.1,18,24.6,17.4,24,17c-0.6-0.5-1.3-0.8-2.1-1.1c-0.8-0.3-1.6-0.5-2.4-0.7
		c-0.7-0.2-1.3-0.4-1.9-0.5c-0.6-0.2-1.1-0.4-1.6-0.7s-1-0.6-1.4-0.9c-0.5-0.4-0.9-0.8-1.2-1.4V28.1z"/>
	<path class="st0" d="M46.8,3.1c-0.4,0.3-0.8,0.9-1,1.8c-0.3,0.9-0.5,1.7-0.6,2.7C45,8.5,45,9.4,44.9,10.2c0,0.9-0.1,1.5-0.1,1.8
		c-0.1-0.9-0.2-1.8-0.2-2.8c0-1-0.2-1.9-0.4-2.7c-0.3-0.8-0.7-1.5-1.4-2.1C42.1,4,41,3.7,39.6,3.7l-5.8,0c-0.7,0-1.2,0.2-1.5,0.6
		c-0.3,0.4-0.5,0.9-0.5,1.5v12.7c1,0,1.9,0,2.8,0c0.9,0,1.7-0.1,2.5-0.3c0.7-0.2,1.3-0.5,1.8-0.9c0.5-0.4,0.7-0.9,0.8-1.7v6.3
		c-0.1-0.7-0.4-1.3-0.8-1.7c-0.5-0.4-1.1-0.7-1.8-0.9c-0.7-0.2-1.6-0.3-2.5-0.3c-0.9,0-1.9,0.4-2.8,0.4v8.2c0,0.6,0.2,1.1,0.5,1.5
		c0.3,0.4,0.8,0.6,1.5,0.6h7c0.7,0,1.2-0.2,1.7-0.5c0.4-0.3,0.8-0.7,1.1-1.2c0.3-0.5,0.5-1.1,0.6-1.7c0.1-0.6,0.3-1.3,0.3-2
		c0.1-0.7,0.1-1.3,0.2-2c0-0.6,0.1-1.2,0.2-1.7c0,0.4,0,1,0.1,1.9c0,0.9,0.1,1.9,0.3,3c0.1,1,0.3,2,0.6,3c0.3,0.9,0.6,1.6,1,1.9
		H23.1c0.9-0.1,1.6-0.5,2-1c0.4-0.5,0.6-1.1,0.6-1.8v-22c0-0.7-0.3-1.3-0.7-1.9c-0.4-0.6-1.1-0.9-2-0.9H46.8z"/>
</g>
<text transform="matrix(1.0128 0 0 1 58.4881 27.0865)" class="st0 st1 st2">HAMZA</text>
</svg>
